<?xml version="1.0" encoding="utf-8"?>
<!-- Generator: Adobe Illustrator 22.0.0, SVG Export Plug-In . SVG Version: 6.00 Build 0)  -->
<svg version="1.1" id="Capa_2" xmlns="http://www.w3.org/2000/svg" xmlns:xlink="http://www.w3.org/1999/xlink" x="0px" y="0px"
	 viewBox="0 0 63.9 63.9" style="enable-background:new 0 0 63.9 63.9;" xml:space="preserve">
<style type="text/css">
	.st0-asoc{fill:#287499;}
	.st1-asoc{fill:#8E8E8E;}
	.st2-asoc{fill:#F7C7A7;}
	.st3-asoc{fill:#CDADA4;}
	.st4-asoc{fill:#C6C6C6;}
	.st5-asoc{fill:#CDCAAD;}
	.st6-asoc{fill:#D8ECFB;}
	.st7-asoc{fill:#AEDCDC;}
	.st8-asoc{fill:#ED6969;}
	.st9-asoc{fill:none;}
	.st1-asoc0{fill:#28749A;}
</style>
<g>
	<path class="st1-asoc" d="M32,2C15.4,2,2,15.4,2,32s13.5,30,30,30s30-13.5,30-30S48.5,2,32,2z M13.3,54.3c-3.9-3.3-7-7.6-8.7-12.4
		C5.3,41.4,6.1,41.1,7,41l3.3,1.6c0.2,0.2,0.6,0.2,0.8,0c0,0,0.5-0.9,0.9-1.8l1.3,4.1V54.3z M7.4,25.4c0.1,0,0.2,0,0.3,0h9.9l0,0.3
		c0,0.6,0.2,1.2,0.5,1.6c-0.1,2.6,0.4,5.3,1.3,7.8c-0.3,0.6-0.7,1.1-1.2,1.6c-1.2,1.2-2.8,1.9-4.5,1.9h0c-3.5,0-6.3-2.9-6.3-6.5
		V25.4z M6.3,23.2l12-3.3c0.5,0,0.9,0.3,1.2,0.7c-0.4,1.2-0.8,2.4-1,3.7c-0.1,0-0.2,0-0.3,0H7.7C7,24.2,6.5,23.8,6.3,23.2z M57,28.1
		c0-0.2-0.1-0.3-0.2-0.4c-0.6-0.5-1-1.2-1-2l0-0.6c0-0.3-0.2-0.5-0.4-0.5c-0.2-0.1-0.5,0-0.6,0.3l0,0.1c-0.5,0.9-1.3,1.6-2.2,2.2
		c0.2-0.8,0.4-2,0.3-3.3c0-0.2-0.2-0.4-0.4-0.5c-0.2-0.1-0.5,0-0.6,0.2c-2.6,3.6-3.7,4.9-7.2,5.7c0-0.6,0.1-1.3,0.1-2
		c0-1.6-0.2-3.1-0.5-4.5c0.2-0.2,0.5-0.4,0.7-0.6c1.9-1.5,3.2-1.8,4.1-1c0.1,0.1,0.2,0.1,0.4,0.1h0c0.1,0,0.3-0.1,0.4-0.1
		c0.9-0.8,2.2-0.5,4.1,1c2.5,1.9,5.2,5.5,5.6,9c0.2,1.8-0.2,3.5-1.4,4.9c-0.9,1.1-2.2,2-4,2.8c1.3-1,2.3-2.5,2.7-4.1
		C57,33.4,57.1,30.5,57,28.1z M44.4,30.4c3.7-0.8,5.1-2,7.2-4.8C51.5,27,51,27.9,51,27.9c-0.1,0.2-0.1,0.5,0.1,0.6
		c0.1,0.2,0.4,0.2,0.6,0.2c1.2-0.4,2.3-1.1,3.1-2.1c0.2,0.7,0.5,1.3,1.1,1.8c0,1.5,0,4.8-0.3,5.9c-0.5,1.8-1.8,3.4-3.5,4.2
		c-1.7,0.8-3.7,0.9-5.5,0.2c-1.3-0.6-2.5-1.5-3.1-2.8c-0.1-0.2-0.2-0.4-0.3-0.6C43.9,33.9,44.2,32.3,44.4,30.4z M46.2,41v-1.2
		c0.9,0.4,2,0.6,3,0.6c1,0,2.1-0.2,3.1-0.6v4.4c0,1.7-1.3,3-3,3s-3-1.3-3-3L46.2,41C46.2,41,46.2,41,46.2,41z M45.1,40.2v0.3h-1
		c-0.1,0-0.1,0-0.2,0c-0.6-0.8-1.4-1.4-2.3-1.9c0,0,0-0.1,0.1-0.1C42.6,39.1,43.7,39.7,45.1,40.2z M44.3,38.6
		c-0.8-0.3-1.5-0.7-2.1-1.2c0.2-0.3,0.3-0.5,0.4-0.8C43.1,37.4,43.7,38.1,44.3,38.6z M43.1,29.6c0,0.4-0.1,0.8-0.1,1.2
		c-0.1,0.6-0.2,1.2-0.3,1.8c-0.2,0.8-0.4,1.6-0.7,2.3c-0.2,0.6-0.5,1.1-0.8,1.6c-0.2,0.3-0.4,0.7-0.6,1c-0.6,0.8-1.2,1.5-1.9,2.1
		l0.6-3.6l0.3-1.9l0.3-1.8c0.6-1.3,1-2.7,1-4.3v-5c0-0.1,0-0.2-0.1-0.3c0-0.1-0.1-0.2-0.2-0.2c0,0,0,0,0,0c-1.2-1.1-1.9-2.6-2-4.2
		l0-1.2c0-0.3-0.2-0.6-0.5-0.7c-0.3-0.1-0.6,0-0.8,0.2c-5.2,5.6-14.5,5.7-14.6,5.7c-0.2,0-0.4,0.1-0.5,0.2c-0.1,0.1-0.2,0.3-0.2,0.5
		l0,1l0,2.6l0,1.4c0,0.4,0,0.9,0.1,1.3c0,0.3,0.1,0.5,0.1,0.8c0.1,0.5,0.3,1,0.5,1.5c0,0,0,0.1,0,0.1c0,0,0,0.1,0,0.1l1.7,7.9
		c-1.8-1.3-2.9-3.3-3.5-4.9c0,0,0-0.1,0-0.1c-0.3-0.7-0.5-1.5-0.7-2.3c-0.3-1.3-0.5-2.7-0.6-4c0-0.4,0-0.8,0-1.2c0,0,0-0.1,0-0.1
		c0-0.8,0.1-1.6,0.2-2.3c0.2-1.4,0.6-2.7,1-4c0.6-1.6,1.4-3.1,2.4-4.3c2.2-2.8,5.1-4.3,8.2-4.3c5.2,0,9.7,4.4,11.2,10.4
		c0.1,0.4,0.2,0.9,0.3,1.4c0.2,1.1,0.3,2.2,0.3,3.3C43.2,28.1,43.1,28.8,43.1,29.6z M31.4,36.1c-2.1,0-4.2-0.8-5.7-2.3
		c-1.5-1.5-2.4-3.5-2.4-5.7l0-4.4c1-0.1,2.8-0.2,5-0.7c2.5-0.6,6-1.8,8.8-4.2c0.2,1.7,0.9,3.4,2.2,4.6V28c0,1.3-0.3,2.5-0.9,3.6
		c0,0-0.1,0.1-0.1,0.1c-0.1,0.2-0.3,0.5-0.4,0.7C36.6,34.6,34.2,36.1,31.4,36.1z M37.9,34.9l-0.5,2.6h-1V36
		C36.9,35.7,37.4,35.3,37.9,34.9z M26.3,36.1v1.5h-0.9l-0.6-2.6C25.3,35.3,25.8,35.7,26.3,36.1z M20,36.5c0.4,0.7,0.7,1.4,1.2,2.1
		c-0.2,0.1-0.4,0.3-0.7,0.4c-0.4-0.4-0.9-0.9-1.4-1.4C19.5,37.2,19.8,36.9,20,36.5z M19.6,39.7c-0.3,0.2-0.5,0.5-0.7,0.8L17,41.3
		c0,0-0.6-1.2-1-1.8c0.3-0.1,0.6-0.2,0.6-0.2c0.6-0.2,1.1-0.5,1.6-0.9C18.7,38.8,19.2,39.3,19.6,39.7z M9.4,38.3
		c0.5,0.4,1,0.6,1.6,0.9c0,0,0.5,0.2,0.8,0.3c-0.5,0.7-1.2,1.8-1.2,1.8L7.7,40L9.4,38.3z M13.4,54.4c0,0,0.1,0.1,0.1,0.1
		C13.5,54.5,13.5,54.4,13.4,54.4z M12.7,39.7c0.4,0.1,0.7,0.1,1.1,0.1h0.1c0.5,0,0.9,0,1.4-0.1c0,0,0,0.1,0.1,0.1l-1.4,3.6
		L12.7,39.7z M17.1,45.6v0.1v0.7v10.5c-1-0.6-1.9-1.2-2.8-1.9V44.9l1.6-4c0.4,0.8,0.7,1.6,0.7,1.6c0.1,0.1,0.3,0.2,0.4,0.2
		c0.1,0,0.3,0,0.4-0.1l0.3-0.2C17.3,43.4,17.1,44.4,17.1,45.6z M30.5,61c-2.1-0.1-4.2-0.4-6.2-1V48.9h-1.5v10.6
		c-1.5-0.5-2.9-1.1-4.3-1.8V45.5c0-1.6,0.6-3.2,1.6-4.3c0.4-0.5,0.9-0.9,1.5-1.3c0.2-0.1,0.3-0.2,0.5-0.3c0.2,0.2,0.4,0.5,0.7,0.7
		c0.7,0.6,1.4,1.2,2.2,1.6c0.1,0,0.1,0.1,0.2,0.1c0.1,0,0.2,0.1,0.3,0.1c0.2,0,0.3-0.1,0.5-0.2c0.2-0.2,0.3-0.5,0.3-0.7L25.7,39h0.7
		l4,6.1V61z M27.8,38.3v-1.5c1.1,0.5,2.3,0.7,3.6,0.7h0.1c1.3,0,2.4-0.3,3.5-0.7v1.5l-3.7,5.3L27.8,38.3z M44.3,58.3
		c-1.4,0.7-2.8,1.2-4.3,1.6v-11h-1.5v11.4C36.4,60.8,34.2,61,32,61c0,0,0,0,0,0V45.1l4.4-6.2h0.9l-0.4,2.1c0,0.3,0.1,0.6,0.3,0.7
		c0.2,0.2,0.6,0.2,0.8,0c1-0.7,1.9-1.4,2.7-2.2c0.6,0.3,1.1,0.6,1.6,1.1c0.3,0.3,0.6,0.6,0.9,1c0.8,1.1,1.3,2.4,1.3,3.9V58.3z
		 M45.1,42.5c-0.1-0.3-0.3-0.6-0.4-0.9h0.4V42.5z M45.7,57.6V46.3c0.7,1.2,2,2,3.5,2c2.3,0,4.1-1.9,4.1-4.1v-2.5h1.1
		c1.7,0,3.2,0.8,4.2,1.9C56,49.5,51.5,54.5,45.7,57.6z M54.5,40.4h-1.1v-0.3c2.5-0.9,4.3-2.1,5.5-3.5c1.3-1.6,1.8-3.5,1.6-5.7
		c-0.2-1.8-1-3.7-2.2-5.5c-1.1-1.6-2.4-3.1-3.9-4.2c-0.9-0.7-1.8-1.2-2.5-1.5c-1.2-0.4-2.1-0.2-2.7,0.2c-0.6-0.4-1.4-0.6-2.7-0.2
		c-0.8,0.2-1.6,0.7-2.5,1.4c-0.1,0.1-0.2,0.2-0.3,0.3c-0.6-2.2-1.7-4.1-3-5.8c-2.5-3.1-5.9-4.9-9.4-4.9c-3.5,0-6.8,1.7-9.3,4.9
		c-0.8,1.1-1.6,2.3-2.2,3.6c-0.5-0.4-1.1-0.6-1.7-0.6h-0.1L5,22.3v0.5c0,0.9,0.5,1.8,1.2,2.2v2.7c-0.8,0.2-1.5,0.7-1.8,1.5
		c-0.4,1-0.1,2.1,0.7,2.8l1.1,0.9c0.2,1.8,1,3.5,2.2,4.7l-2.1,2.1c-0.1,0.1-0.1,0.2-0.2,0.3c-0.7,0.2-1.4,0.4-2.1,0.8
		C3.3,37.9,2.9,35,2.9,32c0-16.1,13-29.1,29.1-29.1S61,15.9,61,32c0,3.7-0.7,7.2-1.9,10.4C57.9,41.2,56.3,40.4,54.5,40.4z M6.2,28.9
		v2.4L5.9,31c-0.4-0.4-0.6-0.9-0.4-1.5C5.6,29.2,5.9,29,6.2,28.9z"/>
	<path class="st2-asoc" d="M13.7,38.6L13.7,38.6c1.7,0,3.3-0.7,4.5-1.9c0.5-0.5,0.9-1,1.2-1.6c-0.9-2.4-1.4-5.2-1.3-7.8
		c-0.3-0.5-0.5-1-0.5-1.6l0-0.3H7.7c-0.1,0-0.2,0-0.3,0v6.7C7.4,35.6,10.2,38.5,13.7,38.6z"/>
	<path class="st3-asoc" d="M18.2,24.2c0.1,0,0.2,0,0.3,0c0.2-1.3,0.5-2.5,1-3.7c-0.3-0.4-0.7-0.6-1.2-0.7l-12,3.3
		c0.2,0.6,0.8,1.1,1.4,1.1H18.2z"/>
	<path class="st3-asoc" d="M54,38.7c1.8-0.8,3.1-1.7,4-2.8c1.1-1.4,1.6-3,1.4-4.9c-0.4-3.5-3.1-7-5.6-9c-1.9-1.5-3.2-1.8-4.1-1
		c-0.1,0.1-0.2,0.1-0.4,0.1h0c-0.1,0-0.3-0.1-0.4-0.1c-0.9-0.8-2.2-0.5-4.1,1c-0.2,0.2-0.5,0.4-0.7,0.6c0.3,1.5,0.5,3,0.5,4.5
		c0,0.7,0,1.3-0.1,2c3.6-0.8,4.6-2.1,7.2-5.7c0.1-0.2,0.4-0.3,0.6-0.2c0.2,0.1,0.4,0.2,0.4,0.5c0.2,1.3,0,2.5-0.3,3.3
		c0.9-0.5,1.6-1.3,2.2-2.2l0-0.1c0.1-0.2,0.4-0.3,0.6-0.3c0.2,0.1,0.4,0.3,0.4,0.5l0,0.6c0,0.8,0.4,1.5,1,2C57,27.8,57,28,57,28.1
		c0,2.4,0,5.3-0.3,6.5C56.3,36.2,55.3,37.7,54,38.7z"/>
	<path class="st2-asoc" d="M43.5,35.9c0.7,1.2,1.8,2.2,3.1,2.8c1.7,0.7,3.8,0.7,5.5-0.2c1.7-0.8,3-2.4,3.5-4.2c0.3-1.2,0.3-4.4,0.3-5.9
		c-0.5-0.5-0.9-1.1-1.1-1.8c-0.9,0.9-1.9,1.7-3.1,2.1c-0.2,0.1-0.5,0-0.6-0.2c-0.2-0.2-0.2-0.4-0.1-0.6c0,0,0.5-1,0.7-2.3
		c-2.1,2.8-3.6,4-7.2,4.8c-0.2,1.8-0.6,3.5-1.2,5C43.3,35.6,43.4,35.8,43.5,35.9z"/>
	<path class="st2-asoc" d="M49.3,47.1c1.7,0,3-1.3,3-3v-4.4c-1,0.4-2,0.6-3.1,0.6c-1,0-2-0.2-3-0.6V41c0,0,0,0,0,0v3.1
		C46.2,45.8,47.6,47.1,49.3,47.1z"/>
	<path class="st4-asoc" d="M42.2,37.5c0.6,0.4,1.3,0.8,2.1,1.2c-0.7-0.5-1.2-1.2-1.7-1.9C42.5,36.9,42.4,37.2,42.2,37.5z"/>
	<path class="st3-asoc" d="M42.6,22.6c-1.5-6-6-10.4-11.2-10.4c-3.1,0-6,1.5-8.2,4.3c-1,1.3-1.8,2.7-2.4,4.3c-0.5,1.3-0.8,2.6-1,4
		c-0.1,0.8-0.2,1.5-0.2,2.3c0,0,0,0.1,0,0.1c0,0.4,0,0.8,0,1.2c0,1.3,0.2,2.7,0.6,4c0.2,0.8,0.4,1.6,0.7,2.3c0,0,0,0.1,0,0.1
		c0.6,1.6,1.7,3.6,3.5,4.9L22.7,32c0,0,0-0.1,0-0.1c0,0,0-0.1,0-0.1c-0.2-0.5-0.4-1-0.5-1.5c-0.1-0.3-0.1-0.5-0.1-0.8
		c-0.1-0.4-0.1-0.9-0.1-1.3l0-1.4l0-2.6l0-1c0-0.2,0.1-0.4,0.2-0.5c0.1-0.1,0.3-0.2,0.5-0.2c0.1,0,9.4-0.1,14.6-5.7
		c0.2-0.2,0.5-0.3,0.8-0.2c0.3,0.1,0.5,0.4,0.5,0.7l0,1.2c0,1.6,0.8,3.1,2,4.2c0,0,0,0,0,0c0.1,0.1,0.1,0.1,0.2,0.2
		c0,0.1,0.1,0.2,0.1,0.3v5c0,1.5-0.4,3-1,4.3L39.5,34L39.2,36l-0.6,3.6c0.7-0.6,1.4-1.3,1.9-2.1c0.2-0.3,0.4-0.6,0.6-1
		c0.3-0.5,0.6-1,0.8-1.6c0.3-0.7,0.5-1.5,0.7-2.3c0.1-0.6,0.2-1.2,0.3-1.8c0.1-0.4,0.1-0.8,0.1-1.2c0.1-0.7,0.1-1.5,0.1-2.3
		c0-1.1-0.1-2.3-0.3-3.3C42.8,23.5,42.7,23,42.6,22.6z"/>
	<path class="st2-asoc" d="M38.4,31.8c0-0.1,0-0.1,0.1-0.1c0.5-1.1,0.9-2.3,0.9-3.6v-4.6c-1.3-1.2-2-2.8-2.2-4.6
		c-2.8,2.4-6.3,3.6-8.8,4.2c-2.2,0.5-4,0.7-5,0.7l0,4.4c0,2.1,0.8,4.1,2.4,5.7c1.5,1.5,3.5,2.3,5.7,2.3c2.8,0,5.2-1.5,6.6-3.7
		C38.2,32.2,38.3,32,38.4,31.8z"/>
	<path class="st4-asoc" d="M36.4,37.5h1l0.5-2.6c-0.4,0.4-0.9,0.8-1.4,1.2V37.5z"/>
	<path class="st2-asoc" d="M35,36.8c-1.1,0.5-2.3,0.7-3.5,0.7h-0.1c-1.3,0-2.5-0.2-3.6-0.7v1.5l3.5,5.3l3.7-5.3V36.8z"/>
	<path class="st4-asoc" d="M25.4,37.5h0.9v-1.5c-0.5-0.3-1-0.7-1.5-1.2L25.4,37.5z"/>
	<path class="st2-asoc" d="M15.2,39.6c-0.5,0.1-0.9,0.1-1.4,0.1h-0.1c-0.4,0-0.7,0-1.1-0.1l1.2,3.7l1.4-3.6
		C15.2,39.7,15.2,39.7,15.2,39.6z"/>
	<g>
		<path class="st5-asoc" d="M11.1,42.5c-0.2,0.2-0.6,0.2-0.8,0L7,41c-0.9,0.1-1.7,0.4-2.4,0.9c1.8,4.9,4.8,9.2,8.7,12.4v-9.5L12,40.7
			C11.5,41.6,11.1,42.5,11.1,42.5z"/>
		<path class="st5-asoc" d="M17,42.7c-0.2,0-0.3-0.1-0.4-0.2c0,0-0.3-0.8-0.7-1.6l-1.6,4V55c0.9,0.7,1.8,1.3,2.8,1.9V46.4v-0.7v-0.1
			c0-1.1,0.2-2.2,0.6-3.2l-0.3,0.2C17.3,42.6,17.1,42.7,17,42.7z"/>
		<path class="st5-asoc" d="M16.6,39.2c0,0-0.3,0.1-0.6,0.2c0.4,0.6,1,1.8,1,1.8l1.8-0.8c0.2-0.3,0.5-0.5,0.7-0.8
			c-0.4-0.4-0.9-0.9-1.4-1.4C17.7,38.7,17.2,39,16.6,39.2z"/>
		<path class="st5-asoc" d="M10.6,41.3c0,0,0.6-1.1,1.2-1.8c-0.4-0.1-0.8-0.3-0.8-0.3c-0.6-0.2-1.1-0.5-1.6-0.9L7.7,40L10.6,41.3z"/>
	</g>
	<path class="st6-asoc" d="M25.7,39l0.5,2.2c0.1,0.3,0,0.5-0.3,0.7c-0.1,0.1-0.3,0.2-0.5,0.2c-0.1,0-0.2,0-0.3-0.1
		c-0.1,0-0.1-0.1-0.2-0.1c-0.8-0.4-1.5-0.9-2.2-1.6c-0.2-0.2-0.4-0.4-0.7-0.7c-0.2,0.1-0.3,0.2-0.5,0.3c-0.6,0.3-1.1,0.8-1.5,1.3
		c-1,1.2-1.6,2.7-1.6,4.3v12.2c1.4,0.7,2.8,1.3,4.3,1.8V48.9h1.5V60c2,0.5,4.1,0.9,6.2,1V45.1l-4-6.1H25.7z"/>
	<path class="st6-asoc" d="M42.2,40.7c-0.5-0.4-1-0.8-1.6-1.1c-0.8,0.8-1.7,1.6-2.7,2.2c-0.2,0.2-0.6,0.2-0.8,0c-0.2-0.2-0.4-0.4-0.3-0.7
		l0.4-2.1h-0.9l-4.4,6.2V61c0,0,0,0,0,0c2.2,0,4.4-0.3,6.5-0.7V48.9h1.5v11c1.5-0.4,2.9-1,4.3-1.6V45.5c0-1.4-0.5-2.8-1.3-3.9
		C42.8,41.3,42.5,41,42.2,40.7z"/>
	<path class="st4-asoc" d="M45.1,42.5v-0.9h-0.4C44.8,41.9,45,42.1,45.1,42.5z"/>
	<path class="st7-asoc" d="M54.5,41.6h-1.1v2.5c0,2.3-1.9,4.1-4.1,4.1c-1.5,0-2.8-0.8-3.5-2v11.3c5.7-3.1,10.3-8,12.9-14.1
		C57.6,42.3,56.2,41.6,54.5,41.6z"/>
	<path class="st2-asoc" d="M5.9,31l0.3,0.3v-2.4c-0.3,0.1-0.6,0.4-0.7,0.7C5.3,30.1,5.5,30.6,5.9,31z"/>
</g>
</svg>
