<svg xmlns="http://www.w3.org/2000/svg" viewBox="0 0 143 143"><defs><style>.st0{fill:#efefef;}</style></defs><title>Recurso 1</title><g id="Capa_2" data-name="Capa 2"><g id="Capa_1-2" data-name="Capa 1"><path class="st0" d="M71.5,143A71.5,71.5,0,1,1,143,71.5,71.58,71.58,0,0,1,71.5,143Zm0-140A68.5,68.5,0,1,0,140,71.5,68.58,68.58,0,0,0,71.5,3Z"/><path class="st0" d="M86.7,78.58H83.53V74.87A22.65,22.65,0,0,0,94.05,55.75V45.24h0V43.58c0-8.24-4.76-18.85-11.39-22.16a29.72,29.72,0,0,0-17.41-1.87c-7.45,1.25-13,5.39-15.43,15.44l-1,7.08a7.24,7.24,0,0,0-3.31,12.74l3.4,2.78A22.66,22.66,0,0,0,59.33,74.87v3.71h-3A19.25,19.25,0,0,0,37.08,97.8V116a1.65,1.65,0,0,0,1.66,1.65h65.53a1.65,1.65,0,0,0,1.65-1.65V97.8A19.24,19.24,0,0,0,86.7,78.58ZM48.78,53.24l-1.2-1a3.91,3.91,0,0,1,1.22-6.76ZM53.13,35c2.2-8.39,7.79-11.5,12.81-12.12,0,0,7-1.17,12.59.41C84.33,24.94,90,33.23,90.65,42h-3c.06-.07-1.93,0-4.16,0-3.48,0-9.33.83-12.93-2-3.1-2.39-6.28-3.19-9.47-2.38-3.85,1-6.82,2.46-9,4.85Zm-1,20.78V47.52c1.2-2.65,5.07-5.49,9.84-6.69a6.7,6.7,0,0,1,6.63,1.8c4.37,4.27,13.05,2.65,13.05,2.65h9.12V55.79a19.32,19.32,0,1,1-38.64,0ZM62.62,80.21V76.63a22.67,22.67,0,0,0,17.61,0v7.56l0,.46a8.73,8.73,0,0,1-8.66,8.45h-.21a8.78,8.78,0,0,1-8.68-8.8v-4Zm40,34.17H92V106H88.69v8.39l-15.86,0,0-18.62H70.17l0,18.64h-16V106H50.92v8.39H40.37V97.8A15.93,15.93,0,0,1,56.28,81.89h3v2.38a12.11,12.11,0,0,0,12,12.12h.23a12,12,0,0,0,12-11.64l0-.48V81.89H86.7A15.93,15.93,0,0,1,102.61,97.8Z"/><path class="st0" d="M91,47.11l.21,8.7a18.91,18.91,0,0,1-.64,2.46l2.71,0c0-.22.65-.47.67-.7l3.39-2.78A7.23,7.23,0,0,0,94,42.07,22.57,22.57,0,0,0,91,47.11Zm5.41.58a4,4,0,0,1-1.16,4.56l-1.2,1,0-7.75A3.93,3.93,0,0,1,96.37,47.69Z"/></g></g></svg>
