<?xml version="1.0" encoding="utf-8"?>
<!-- Generator: Adobe Illustrator 22.0.0, SVG Export Plug-In . SVG Version: 6.00 Build 0)  -->
<svg version="1.1" id="Capa_1" xmlns="http://www.w3.org/2000/svg" xmlns:xlink="http://www.w3.org/1999/xlink" x="0px" y="0px"
	 viewBox="0 0 146.5 146.5" style="enable-background:new 0 0 146.5 146.5;" xml:space="preserve">
<style type="text/css">
	.st0{fill:#EFEFEF;}
	.st1{fill:#8E8E8E;}
	.st2{fill:#F7C7A7;}
	.st3{fill:#D8ECFB;}
	.st4{fill:#CDADA4;}
	.st5{fill:#C6C6C6;}
	.st6{fill:#66BB6A;}
	.st7{fill:#A5A5A5;}
	.st8{fill:#ED6969;}
	.st9{fill:#757575;}
</style>
<path class="st0" d="M73.2,144.7c-39.4,0-71.5-32.1-71.5-71.5S33.8,1.7,73.2,1.7s71.5,32.1,71.5,71.5S112.7,144.7,73.2,144.7z
	 M73.2,4.7C35.5,4.7,4.7,35.5,4.7,73.2s30.7,68.5,68.5,68.5s68.5-30.7,68.5-68.5S111,4.7,73.2,4.7z"/>
<g>
	<g>
		<path class="st1" d="M95.1,82.9c1.4-1.9,2.6-4.1,3.7-6.4c2.3-5.4,3.5-11.9,3.5-19.7c0-10.1-3.2-19.7-8.9-26.9
			c-5.8-7.3-13.6-11.3-21.8-11.3c-8.2,0-15.9,4-21.6,11.4c-5.5,7.1-8.8,16.6-9.1,26.8c-0.2,6.3,1,13.2,3.4,19.1
			c1.1,2.6,2.3,5,3.8,7.1c-5.9,3.2-9.6,9.5-9.6,16.3v17.5c0,0.9,0.8,1.7,1.7,1.7h63.1c0.9,0,1.7-0.8,1.7-1.7V99.2
			C104.8,92.3,101.1,86.1,95.1,82.9z M47.3,74.6c-2.2-5.4-3.3-11.9-3.1-17.7c0.4-9.5,3.3-18.4,8.4-24.8c5.1-6.5,11.8-10.1,18.9-10.1
			c15.1,0,27.4,15.6,27.4,34.9c0,13.2-3.4,22.4-10.7,28.6l2.9-17c1.5-3,2.3-6.3,2.3-9.9V47c0,0,0,0,0-0.1c0-0.2-0.1-0.4-0.1-0.7
			c-0.1-0.2-0.2-0.4-0.4-0.5c0,0,0,0-0.1,0c-2.8-2.5-4.5-6-4.6-9.8l-0.1-2.7c0-0.7-0.4-1.3-1.1-1.5c-0.6-0.3-1.4-0.1-1.8,0.4
			c-12.1,13-33.7,13.1-33.9,13.1l0,0c-0.9,0-1.7,0.8-1.7,1.7l0,11.7c0,3,0.6,6,1.8,8.7c0,0.1,0,0.2,0,0.3L55.4,86
			C51.3,82.8,48.8,78.2,47.3,74.6z M71.7,77.3c-5,0-9.6-1.9-13.2-5.4C55,68.4,53,63.7,53,58.8l0-10.1c2.2-0.1,6.5-0.5,11.5-1.7
			c5.9-1.4,13.9-4.2,20.4-9.8c0.4,4,2.2,7.8,5.1,10.6v10.7c0,3-0.7,5.9-2,8.4c-0.1,0.1-0.1,0.2-0.2,0.3
			C84.8,73.1,78.7,77.2,71.7,77.3z M86.6,74.5l-1.1,6.1h-2.3v-3.5C84.5,76.3,85.6,75.5,86.6,74.5z M59.8,77.2v3.4h-2.1l-1.3-6.1
			C57.5,75.5,58.6,76.4,59.8,77.2z M69.5,115.1H55.1v-8h-3.4v8h-10V99.2c0-5.8,3.3-11,8.4-13.6c2.1,2.3,4.5,4.1,7.1,5.4
			c0.2,0.1,0.5,0.2,0.7,0.2c0.4,0,0.7-0.1,1.1-0.4c0.5-0.4,0.7-1.1,0.6-1.7L58.5,84h1.7l9.3,14.2L69.5,115.1L69.5,115.1z M63.2,82.4
			v-0.1v0V79c2.6,1.1,5.4,1.7,8.4,1.7c0.1,0,0.1,0,0.2,0c2.9,0,5.7-0.6,8.2-1.7v3.3c0,0,0,0,0,0.1v0.1l-8.7,12.3L63.2,82.4z
			 M101.5,115.1h-10v-8h-3.4v8H72.8V98.3L82.9,84H85l-0.9,5c-0.1,0.7,0.2,1.3,0.7,1.7c0.5,0.4,1.3,0.4,1.8,0
			c2.4-1.5,4.4-3.2,6.2-5.1c5.2,2.5,8.5,7.8,8.5,13.7L101.5,115.1L101.5,115.1z"/>
	</g>
	<path class="st2" d="M71.7,77.3c-5,0-9.6-1.9-13.2-5.4C55,68.4,53,63.7,53,58.8l0-10.1c2.2-0.1,6.5-0.5,11.5-1.7
		c5.9-1.4,13.9-4.2,20.4-9.8c0.4,4,2.2,7.8,5.1,10.6v10.7c0,3-0.7,5.9-2,8.4c-0.1,0.1-0.1,0.2-0.2,0.3
		C84.8,73.1,78.7,77.2,71.7,77.3z"/>
	<path class="st2" d="M63.2,82.4v-0.1v0V79c2.6,1.1,5.4,1.7,8.4,1.7c0.1,0,0.1,0,0.2,0c2.9,0,5.7-0.6,8.2-1.7v3.3c0,0,0,0,0,0.1v0.1
		l-8.7,12.3L63.2,82.4z"/>
	<g>
		<path class="st3" d="M69.5,115.1H55.1v-8h-3.4v8h-10V99.2c0-5.8,3.3-11,8.4-13.6c2.1,2.3,4.5,4.1,7.1,5.4c0.2,0.1,0.5,0.2,0.7,0.2
			c0.4,0,0.7-0.1,1.1-0.4c0.5-0.4,0.7-1.1,0.6-1.7L58.5,84h1.7l9.3,14.2L69.5,115.1L69.5,115.1z"/>
		<path class="st3" d="M101.5,115.1h-10v-8h-3.4v8H72.8V98.3L82.9,84H85l-0.9,5c-0.1,0.7,0.2,1.3,0.7,1.7c0.5,0.4,1.3,0.4,1.8,0
			c2.4-1.5,4.4-3.2,6.2-5.1c5.2,2.5,8.5,7.8,8.5,13.7L101.5,115.1L101.5,115.1z"/>
	</g>
	<path class="st4" d="M47.3,74.6c-2.2-5.4-3.3-11.9-3.1-17.7c0.4-9.5,3.3-18.4,8.4-24.8c5.1-6.5,11.8-10.1,18.9-10.1
		c15.1,0,27.4,15.6,27.4,34.9c0,13.2-3.4,22.4-10.7,28.6l2.9-17c1.5-3,2.3-6.3,2.3-9.9V47c0,0,0,0,0-0.1c0-0.2-0.1-0.4-0.1-0.7
		c-0.1-0.2-0.2-0.4-0.4-0.5c0,0,0,0-0.1,0c-2.8-2.5-4.5-6-4.6-9.8l-0.1-2.7c0-0.7-0.4-1.3-1.1-1.5c-0.6-0.3-1.4-0.1-1.8,0.4
		c-12.1,13-33.7,13.1-33.9,13.1l0,0c-0.9,0-1.7,0.8-1.7,1.7l0,11.7c0,3,0.6,6,1.8,8.7c0,0.1,0,0.2,0,0.3L55.4,86
		C51.3,82.8,48.8,78.2,47.3,74.6z"/>
</g>
</svg>
