<?xml version="1.0" encoding="utf-8"?>
<!-- Generator: Adobe Illustrator 22.0.0, SVG Export Plug-In . SVG Version: 6.00 Build 0)  -->
<svg version="1.1" id="Capa_1" xmlns="http://www.w3.org/2000/svg" xmlns:xlink="http://www.w3.org/1999/xlink" x="0px" y="0px"
	 viewBox="0 0 143 143" style="enable-background:new 0 0 143 143;" xml:space="preserve">
<style type="text/css">
	.st0{fill:#EFEFEF;}
	.st1{fill:#8E8E8E;}
	.st2{fill:#F7C7A7;}
	.st3{fill:#D8ECFB;}
	.st4{fill:#CDADA4;}
	.st5{fill:#C6C6C6;}
	.st6{fill:#66BB6A;}
	.st7{fill:#A5A5A5;}
	.st8{fill:#ED6969;}
	.st9{fill:#757575;}
</style>
<path class="st0" d="M71.5,143C32.1,143,0,110.9,0,71.5S32.1,0,71.5,0S143,32.1,143,71.5S110.9,143,71.5,143z M71.5,3
	C33.7,3,3,33.7,3,71.5S33.7,140,71.5,140S140,109.3,140,71.5S109.3,3,71.5,3z"/>
<g>
	<path class="st1" d="M94.8,79.7c-0.7-0.3-1.5-0.5-2.2-0.7c-0.1-0.3-0.2-0.6-0.5-0.8c0,0-2.8-2.6-5.9-5.8c3.6-3.6,5.7-8.2,6.1-13.1
		l3.2-2.6c2.4-1.9,3.2-5.1,2-7.9c-0.5-1.2-1.3-2.1-2.3-2.9c1.6-1.4,2.6-3.4,2.6-5.7v-3.5c0-3.9-3-7.2-6.9-7.5V27
		c0-4.2-3.4-7.5-7.5-7.5h-0.2L46.6,29.6v1.3c0,2.6,1.3,4.9,3.3,6.3v7.4c-2.3,0.5-4.2,2-5.1,4.1c-1.1,2.8-0.3,6,2,7.9l3.1,2.6
		c0.5,5.2,2.8,9.8,6.2,13.2l-5.8,5.8c-0.2,0.2-0.4,0.5-0.4,0.8c-4.2,0.9-8,3.1-10.9,6.3c-3.5,3.8-5.4,8.8-5.4,14v17.1
		c0,0.9,0.8,1.7,1.7,1.7H107c0.9,0,1.7-0.8,1.7-1.7V99.3C108.7,90.5,103.1,82.6,94.8,79.7z"/>
	<path class="st2" d="M50,54.8l-0.9-0.7c-1.2-1-1.6-2.6-1.1-4.1c0.3-0.9,1.1-1.5,2-1.9V54.8z"/>
	<path class="st3" d="M88.4,79.4l-8.1,3.5c0,0-1.6-3.4-2.9-5.2c0.8-0.3,1.6-0.5,1.6-0.5c1.6-0.7,3.1-1.5,4.5-2.5
		C85.5,76.5,87.3,78.2,88.4,79.4z"/>
	<path class="st2" d="M71.1,78.7h0.2c1.3,0,2.7-0.1,3.9-0.4c0.1,0.1,0.1,0.2,0.2,0.3l-3.9,10.1l-3.4-10.3C69,78.6,70,78.7,71.1,78.7
		z"/>
	<path class="st2" d="M93.4,54.1l-1,0.8v-6.9c0.9,0.3,1.7,1,2.1,1.9C95.1,51.5,94.7,53.1,93.4,54.1z"/>
	<path class="st4" d="M88.1,36.8c0.1-0.1,0.2-0.2,0.3-0.3c0,0,0.1,0,0.1-0.1c0.1-0.1,0.2-0.2,0.3-0.3c0,0,0,0,0,0
		c0.1-0.1,0.2-0.2,0.3-0.3c0,0,0.1-0.1,0.1-0.1c0.1-0.1,0.2-0.2,0.3-0.4c0.1-0.1,0.2-0.3,0.3-0.4c0,0,0-0.1,0.1-0.1
		c0.1-0.1,0.1-0.2,0.2-0.3c0,0,0,0,0-0.1c0.1-0.1,0.1-0.3,0.2-0.4c0,0,0-0.1,0-0.1c0-0.1,0.1-0.2,0.1-0.4c0,0,0-0.1,0-0.1
		c0.1-0.1,0.1-0.3,0.1-0.4c0,0,0-0.1,0-0.1c0-0.1,0.1-0.3,0.1-0.4c0,0,0,0,0-0.1c2.1,0.2,3.7,2,3.7,4.2v3.5c0,2.3-1.9,4.2-4.2,4.2
		c-2.8,0-5.1-2.2-5.2-5l0-1.1c0,0,0,0,0.1,0c0.1,0,0.3-0.1,0.5-0.1c0.1,0,0.3-0.1,0.4-0.1c0,0,0.1,0,0.1,0c0.1,0,0.3-0.1,0.4-0.2
		c0,0,0,0,0.1,0c0.1-0.1,0.3-0.1,0.4-0.2c0,0,0.1,0,0.1-0.1c0.1-0.1,0.2-0.1,0.3-0.2c0,0,0.1,0,0.1-0.1C87.8,37.1,88,37,88.1,36.8
		L88.1,36.8z"/>
	<path class="st4" d="M50.2,32.1l33.6-9.3c2.2,0.1,4,1.9,4,4.2v3.9c0,2.3-1.9,4.2-4.2,4.2H54.2C52.3,35.1,50.7,33.8,50.2,32.1z"/>
	<path class="st2" d="M53.4,57.2V38.4c0.3,0,0.5,0,0.8,0h27.7l0,1c0.1,4.1,3.2,7.6,7.2,8.2v9.9c0,0.3,0,0.6,0,0.9v0.2
		c-0.3,4.4-2.1,8.5-5.3,11.6c-3.4,3.3-7.8,5.2-12.6,5.2h-0.1C61.3,75.3,53.4,67.1,53.4,57.2z"/>
	<path class="st3" d="M58.9,74.7c1.3,1,2.8,1.8,4.4,2.5c0,0,1.3,0.4,2.3,0.8c-1.5,2-3.2,5-3.2,5l-8.1-3.6L58.9,74.7z"/>
	<path class="st3" d="M65.7,114.8l-3.4,0h-10v-9.2H49v9.2H37.2V99.3c0-8.8,6.4-16.1,15-17.3l9.1,4.4C62,87,63,87,63.6,86.4
		c0,0,1.3-2.6,2.6-5l3.7,11.4v21.9l-0.1,0H65.7z"/>
	<path class="st3" d="M105.3,114.8H93.5v-9.2h-3.4v9.2H76.8l-3.9-0.1l-0.3,0V93.1L77,81.8c1.1,2.3,2,4.6,2,4.6
		c0.3,0.3,0.8,0.5,1.2,0.5c0.4,0,0.8-0.1,1.1-0.4l9.1-4.4c1.1,0.2,2.2,0.4,3.2,0.8c7,2.5,11.6,9.1,11.6,16.5V114.8z"/>
	<g>
		<rect x="77.8" y="95.2" class="st1" width="8" height="2"/>
		<rect x="75.2" y="95.2" class="st1" width="2.5" height="2"/>
		<rect x="85.8" y="95.2" class="st1" width="2.5" height="2"/>
		<path class="st1" d="M85.8,100.7c0,1.7-1.4,3-3,3h-1.9c-1.7,0-3-1.4-3-3v-3.5h-2.5v3.5c0,3.1,2.5,5.5,5.5,5.5h1.9
			c3.1,0,5.5-2.5,5.5-5.5v-3.5h-2.5V100.7z"/>
	</g>
</g>
</svg>
