<?xml version="1.0" encoding="utf-8"?>
<!-- Generator: Adobe Illustrator 22.0.0, SVG Export Plug-In . SVG Version: 6.00 Build 0)  -->
<svg version="1.1" id="Capa_1" xmlns="http://www.w3.org/2000/svg" xmlns:xlink="http://www.w3.org/1999/xlink" x="0px" y="0px"
	 viewBox="0 0 62 62" style="enable-background:new 0 0 62 62;" xml:space="preserve">
<style type="text/css">
	.st0{fill:#EFEFEF;}
	.st1{fill:#8E8E8E;}
	.st2{fill:#F7C7A7;}
	.st3{fill:#D8ECFB;}
	.st4{fill:#CDADA4;}
	.st5{fill:#C6C6C6;}
	.st6{fill:#66BB6A;}
	.st7{fill:#A5A5A5;}
	.st8{fill:#ED6969;}
	.st9{fill:#757575;}
</style>
<g>
	<path class="st6" d="M31,1C14.4,1,1,14.4,1,31s13.4,30,30,30s30-13.4,30-30S47.6,1,31,1z M42.6,26.1c-1.4,1.7-2.8,3.5-4.7,5.9
		l-4,4.9l-1,1.2l-0.5,0.6c-0.2,0.3-0.6,0.7-0.9,1c-1,1.1-2.4,1.7-4.1,1.8l-0.1,0l-0.1,0c-1.8-0.1-3.3-1-4.3-2.6
		c-0.5-0.7-0.9-1.5-1.3-2.2l-0.4-0.7l-0.4-0.7c-0.6-1.1-1.3-2.3-1.9-3.4c-0.8-1.5-0.7-3.2,0.3-4.6c0.9-1.2,2.1-1.9,3.5-1.9
		c0.3,0,0.7,0,1,0.1c0.8,0.2,1.6,0.6,2.2,1.3c0.6,0.6,1.1,1.1,1.7,1.7c1.9-1.8,3.8-3.6,5.8-5.5c0.9-0.9,1.9-1.8,2.9-2.7
		c0.8-0.7,1.8-1.1,2.8-1.1c1.1,0,2.2,0.5,3,1.3C43.9,22,44,24.4,42.6,26.1z"/>
</g>
</svg>
