<?xml version="1.0" encoding="utf-8"?>
<!-- Generator: Adobe Illustrator 22.0.0, SVG Export Plug-In . SVG Version: 6.00 Build 0)  -->
<svg version="1.1" id="Capa_2" xmlns="http://www.w3.org/2000/svg" xmlns:xlink="http://www.w3.org/1999/xlink" x="0px" y="0px"
	 viewBox="0 0 63.9 63.9" style="enable-background:new 0 0 63.9 63.9;" xml:space="preserve">
<style type="text/css">
	.st0{fill:#287499;}
	.st1{fill:#8E8E8E;}
	.st2{fill:#F7C7A7;}
	.st3{fill:#CDADA4;}
	.st4{fill:#C6C6C6;}
	.st5{fill:#CDCAAD;}
	.st6{fill:#D8ECFB;}
	.st7{fill:#AEDCDC;}
	.st8{fill:#ED6969;}
	.st9{fill:none;}
	.st10{fill:#28749A;}
</style>
<g>
	<path class="st4" d="M32,2C15.4,2,2,15.4,2,32s13.5,30,30,30s30-13.5,30-30S48.5,2,32,2z M4.6,41.8C5.3,41.4,6.1,41.1,7,41l3.3,1.6
		c0.2,0.2,0.6,0.2,0.8,0c0,0,0.5-0.9,0.9-1.8l1.3,4.1v9.5C9.4,51,6.4,46.7,4.6,41.8z M7.4,25.4c0.1,0,0.2,0,0.3,0h9.9l0,0.3
		c0,0.6,0.2,1.2,0.5,1.6c-0.1,2.6,0.4,5.3,1.3,7.8c-0.3,0.6-0.7,1.1-1.2,1.6c-1.2,1.2-2.8,1.9-4.5,1.9h0c-3.5,0-6.3-2.9-6.3-6.5
		V25.4z M6.3,23.2l12-3.3c0.5,0,0.9,0.3,1.2,0.7c-0.4,1.2-0.8,2.4-1,3.7c-0.1,0-0.2,0-0.3,0H7.7C7,24.2,6.5,23.8,6.3,23.2z M57,28.1
		c0-0.2-0.1-0.3-0.2-0.4c-0.6-0.5-1-1.2-1-2l0-0.6c0-0.3-0.2-0.5-0.4-0.5c-0.2-0.1-0.5,0-0.6,0.3l0,0.1c-0.5,0.9-1.3,1.6-2.2,2.2
		c0.2-0.8,0.4-2,0.3-3.3c0-0.2-0.2-0.4-0.4-0.5c-0.2-0.1-0.5,0-0.6,0.2c-2.6,3.6-3.7,4.9-7.2,5.7c0-0.6,0.1-1.3,0.1-2
		c0-1.6-0.2-3.1-0.5-4.5c0.2-0.2,0.5-0.4,0.7-0.6c1.9-1.5,3.2-1.8,4.1-1c0.1,0.1,0.2,0.1,0.4,0.1h0c0.1,0,0.3-0.1,0.4-0.1
		c0.9-0.8,2.2-0.5,4.1,1c2.5,1.9,5.2,5.5,5.6,9c0.2,1.8-0.2,3.5-1.4,4.9c-0.9,1.1-2.2,2-4,2.8c1.3-1,2.3-2.5,2.7-4.1
		C57,33.4,57.1,30.5,57,28.1z M44.4,30.4c3.7-0.8,5.1-2,7.2-4.8C51.5,27,51,27.9,51,27.9c-0.1,0.2-0.1,0.5,0.1,0.6
		c0.1,0.2,0.4,0.2,0.6,0.2c1.2-0.4,2.3-1.1,3.1-2.1c0.2,0.7,0.5,1.3,1.1,1.8c0,1.5,0,4.8-0.3,5.9c-0.5,1.8-1.8,3.4-3.5,4.2
		c-1.7,0.8-3.7,0.9-5.5,0.2c-1.3-0.6-2.5-1.5-3.1-2.8c-0.1-0.2-0.2-0.4-0.3-0.6C43.9,33.9,44.2,32.3,44.4,30.4z M46.2,41v-1.2
		c0.9,0.4,2,0.6,3,0.6c1,0,2.1-0.2,3.1-0.6v4.4c0,1.7-1.3,3-3,3s-3-1.3-3-3L46.2,41C46.2,41,46.2,41,46.2,41z M45.1,40.2v0.3h-1
		c-0.1,0-0.1,0-0.2,0c-0.6-0.8-1.4-1.4-2.3-1.9c0,0,0-0.1,0.1-0.1C42.6,39.1,43.7,39.7,45.1,40.2z M44.3,38.6
		c-0.8-0.3-1.5-0.7-2.1-1.2c0.2-0.3,0.3-0.5,0.4-0.8C43.1,37.4,43.7,38.1,44.3,38.6z M43.1,29.6c0,0.4-0.1,0.8-0.1,1.2
		c-0.1,0.6-0.2,1.2-0.3,1.8c-0.2,0.8-0.4,1.6-0.7,2.3c-0.2,0.6-0.5,1.1-0.8,1.6c-0.2,0.3-0.4,0.7-0.6,1c-0.6,0.8-1.2,1.5-1.9,2.1
		l0.6-3.6l0.3-1.9l0.3-1.8c0.6-1.3,1-2.7,1-4.3v-5c0-0.1,0-0.2-0.1-0.3c0-0.1-0.1-0.2-0.2-0.2c0,0,0,0,0,0c-1.2-1.1-1.9-2.6-2-4.2
		l0-1.2c0-0.3-0.2-0.6-0.5-0.7c-0.3-0.1-0.6,0-0.8,0.2c-5.2,5.6-14.5,5.7-14.6,5.7c-0.2,0-0.4,0.1-0.5,0.2c-0.1,0.1-0.2,0.3-0.2,0.5
		l0,1l0,2.6l0,1.4c0,0.4,0,0.9,0.1,1.3c0,0.3,0.1,0.5,0.1,0.8c0.1,0.5,0.3,1,0.5,1.5c0,0,0,0.1,0,0.1c0,0,0,0.1,0,0.1l1.7,7.9
		c-1.8-1.3-2.9-3.3-3.5-4.9c0,0,0-0.1,0-0.1c-0.3-0.7-0.5-1.5-0.7-2.3c-0.3-1.3-0.5-2.7-0.6-4c0-0.4,0-0.8,0-1.2c0,0,0-0.1,0-0.1
		c0-0.8,0.1-1.6,0.2-2.3c0.2-1.4,0.6-2.7,1-4c0.6-1.6,1.4-3.1,2.4-4.3c2.2-2.8,5.1-4.3,8.2-4.3c5.2,0,9.7,4.4,11.2,10.4
		c0.1,0.4,0.2,0.9,0.3,1.4c0.2,1.1,0.3,2.2,0.3,3.3C43.2,28.1,43.1,28.8,43.1,29.6z M31.4,36.1c-2.1,0-4.2-0.8-5.7-2.3
		c-1.5-1.5-2.4-3.5-2.4-5.7l0-4.4c1-0.1,2.8-0.2,5-0.7c2.5-0.6,6-1.8,8.8-4.2c0.2,1.7,0.9,3.4,2.2,4.6V28c0,1.3-0.3,2.5-0.9,3.6
		c0,0-0.1,0.1-0.1,0.1c-0.1,0.2-0.3,0.5-0.4,0.7C36.6,34.6,34.2,36.1,31.4,36.1z M37.9,34.9l-0.5,2.6h-1V36
		C36.9,35.7,37.4,35.3,37.9,34.9z M35,36.8v1.5l-3.7,5.3l-3.5-5.3v-1.5c1.1,0.5,2.3,0.7,3.6,0.7h0.1C32.7,37.5,33.9,37.3,35,36.8z
		 M26.3,36.1v1.5h-0.9l-0.6-2.6C25.3,35.3,25.8,35.7,26.3,36.1z M20,36.5c0.4,0.7,0.7,1.4,1.2,2.1c-0.2,0.1-0.4,0.3-0.7,0.4
		c-0.4-0.4-0.9-0.9-1.4-1.4C19.5,37.2,19.8,36.9,20,36.5z M17.1,45.6v0.1v0.7v10.5c-1-0.6-1.9-1.2-2.8-1.9V44.9l1.6-4
		c0.4,0.8,0.7,1.6,0.7,1.6c0.1,0.1,0.3,0.2,0.4,0.2c0.1,0,0.3,0,0.4-0.1l0.3-0.2C17.3,43.4,17.1,44.4,17.1,45.6z M13.9,43.4
		l-1.2-3.7c0.4,0.1,0.7,0.1,1.1,0.1h0.1c0.5,0,0.9,0,1.4-0.1c0,0,0,0.1,0.1,0.1L13.9,43.4z M17,41.3c0,0-0.6-1.2-1-1.8
		c0.3-0.1,0.6-0.2,0.6-0.2c0.6-0.2,1.1-0.5,1.6-0.9c0.5,0.5,1,1,1.4,1.4c-0.3,0.2-0.5,0.5-0.7,0.8L17,41.3z M9.4,38.3
		c0.5,0.4,1,0.6,1.6,0.9c0,0,0.5,0.2,0.8,0.3c-0.5,0.7-1.2,1.8-1.2,1.8L7.7,40L9.4,38.3z M13.6,54.5c0,0-0.1-0.1-0.1-0.1
		C13.5,54.4,13.5,54.5,13.6,54.5z M18.5,45.5c0-1.6,0.6-3.2,1.6-4.3c0.4-0.5,0.9-0.9,1.5-1.3c0.2-0.1,0.3-0.2,0.5-0.3
		c0.2,0.2,0.4,0.5,0.7,0.7c0.7,0.6,1.4,1.2,2.2,1.6c0.1,0,0.1,0.1,0.2,0.1c0.1,0,0.2,0.1,0.3,0.1c0.2,0,0.3-0.1,0.5-0.2
		c0.2-0.2,0.3-0.5,0.3-0.7L25.7,39h0.7l4,6.1V61c-2.1-0.1-4.2-0.4-6.2-1V48.9h-1.5v10.6c-1.5-0.5-2.9-1.1-4.3-1.8V45.5z M44.3,58.3
		c-1.4,0.7-2.8,1.2-4.3,1.6v-11h-1.5v11.4C36.4,60.8,34.2,61,32,61c0,0,0,0,0,0V45.1l4.4-6.2h0.9l-0.4,2.1c0,0.3,0.1,0.6,0.3,0.7
		c0.2,0.2,0.6,0.2,0.8,0c1-0.7,1.9-1.4,2.7-2.2c0.6,0.3,1.1,0.6,1.6,1.1c0.3,0.3,0.6,0.6,0.9,1c0.8,1.1,1.3,2.4,1.3,3.9V58.3z
		 M45.1,41.6v0.9c-0.1-0.3-0.3-0.6-0.4-0.9H45.1z M45.7,57.6V46.3c0.7,1.2,2,2,3.5,2c2.3,0,4.1-1.9,4.1-4.1v-2.5h1.1
		c1.7,0,3.2,0.8,4.2,1.9C56,49.5,51.5,54.5,45.7,57.6z M54.5,40.4h-1.1v-0.3c2.5-0.9,4.3-2.1,5.5-3.5c1.3-1.6,1.8-3.5,1.6-5.7
		c-0.2-1.8-1-3.7-2.2-5.5c-1.1-1.6-2.4-3.1-3.9-4.2c-0.9-0.7-1.8-1.2-2.5-1.5c-1.2-0.4-2.1-0.2-2.7,0.2c-0.6-0.4-1.4-0.6-2.7-0.2
		c-0.8,0.2-1.6,0.7-2.5,1.4c-0.1,0.1-0.2,0.2-0.3,0.3c-0.6-2.2-1.7-4.1-3-5.8c-2.5-3.1-5.9-4.9-9.4-4.9c-3.5,0-6.8,1.7-9.3,4.9
		c-0.8,1.1-1.6,2.3-2.2,3.6c-0.5-0.4-1.1-0.6-1.7-0.6h-0.1L5,22.3v0.5c0,0.9,0.5,1.8,1.2,2.2v2.7c-0.8,0.2-1.5,0.7-1.8,1.5
		c-0.4,1-0.1,2.1,0.7,2.8l1.1,0.9c0.2,1.8,1,3.5,2.2,4.7l-2.1,2.1c-0.1,0.1-0.1,0.2-0.2,0.3c-0.7,0.2-1.4,0.4-2.1,0.8
		C3.3,37.9,2.9,35,2.9,32c0-16.1,13-29.1,29.1-29.1S61,15.9,61,32c0,3.7-0.7,7.2-1.9,10.4C57.9,41.2,56.3,40.4,54.5,40.4z M6.2,28.9
		v2.4L5.9,31c-0.4-0.4-0.6-0.9-0.4-1.5C5.6,29.2,5.9,29,6.2,28.9z"/>
	<path class="st4" d="M18.5,57.8c-0.2-0.1-0.5-0.3-0.7-0.4C18,57.5,18.3,57.6,18.5,57.8z"/>
	<path class="st4" d="M45,58c-0.2,0.1-0.5,0.2-0.7,0.3C44.5,58.2,44.8,58.1,45,58z"/>
</g>
</svg>
