<?xml version="1.0" encoding="utf-8"?>
<!-- Generator: Adobe Illustrator 22.0.0, SVG Export Plug-In . SVG Version: 6.00 Build 0)  -->
<svg version="1.1" id="Capa_2" xmlns="http://www.w3.org/2000/svg" xmlns:xlink="http://www.w3.org/1999/xlink" x="0px" y="0px"
	 viewBox="0 0 63.9 63.9" style="enable-background:new 0 0 63.9 63.9;" xml:space="preserve">
<style type="text/css">
	.st0{fill:#287499;}
	.st1{fill:#8E8E8E;}
	.st2{fill:#F7C7A7;}
	.st3{fill:#CDADA4;}
	.st4{fill:#C6C6C6;}
	.st5{fill:#CDCAAD;}
	.st6{fill:#D8ECFB;}
	.st7{fill:#AEDCDC;}
	.st8{fill:#ED6969;}
	.st9{fill:none;}
	.st10{fill:#28749A;}
</style>
<g>
	<g>
		<path class="st8" d="M52,61.8c4.8,0,8.6-3.9,8.6-8.6c0-4.8-3.9-8.6-8.6-8.6c-4.8,0-8.6,3.9-8.6,8.6C43.4,57.9,47.2,61.8,52,61.8z
			 M47.9,46.9l0.2,0.3c0.1,0.2,0.4,0.3,0.6,0.2c0.2-0.1,0.3-0.4,0.2-0.6l-0.2-0.3c0.9-0.4,1.8-0.7,2.9-0.8v1.2
			c0,0.3,0.2,0.5,0.5,0.5c0.3,0,0.5-0.2,0.5-0.5v-1.2c1,0.1,2,0.3,2.9,0.8l-0.2,0.3c-0.1,0.2-0.1,0.5,0.2,0.6
			c0.2,0.1,0.5,0.1,0.6-0.2l0.2-0.3c0.8,0.6,1.5,1.3,2.1,2.1l-0.3,0.2c-0.2,0.1-0.3,0.4-0.2,0.6c0.1,0.2,0.4,0.3,0.6,0.2l0.3-0.2
			c0.4,0.9,0.7,1.8,0.8,2.9h-1.2c-0.3,0-0.5,0.2-0.5,0.5c0,0.3,0.2,0.5,0.5,0.5h1.2c-0.1,1-0.3,2-0.8,2.9l-0.3-0.2
			c-0.2-0.1-0.5-0.1-0.6,0.2c-0.1,0.2-0.1,0.5,0.2,0.6l0.3,0.2c-0.6,0.8-1.3,1.5-2.1,2.1L56,59.1c-0.1-0.2-0.4-0.3-0.6-0.2
			c-0.2,0.1-0.3,0.4-0.2,0.6l0.2,0.3c-0.9,0.4-1.8,0.7-2.9,0.8v-1.2c0-0.3-0.2-0.5-0.5-0.5c-0.3,0-0.5,0.2-0.5,0.5v1.2
			c-1-0.1-2-0.3-2.9-0.8l0.2-0.3c0.1-0.2,0.1-0.5-0.2-0.6c-0.2-0.1-0.5-0.1-0.6,0.2l-0.2,0.3c-0.8-0.6-1.5-1.3-2.1-2.1l0.3-0.2
			c0.2-0.1,0.3-0.4,0.2-0.6s-0.4-0.3-0.6-0.2l-0.3,0.2c-0.4-0.9-0.7-1.8-0.8-2.9h1.2c0.3,0,0.5-0.2,0.5-0.5c0-0.3-0.2-0.5-0.5-0.5
			h-1.2c0.1-1,0.3-2,0.8-2.9l0.3,0.2c0.2,0.1,0.5,0.1,0.6-0.2c0.1-0.2,0.1-0.5-0.2-0.6L45.8,49C46.3,48.2,47,47.4,47.9,46.9z"/>
		<path class="st8" d="M52,53.8c0.2,0,0.3-0.1,0.4-0.2l2.8-0.2c0.2,0,0.3,0,0.3-0.3c0-0.3-0.1-0.3-0.3-0.3l-2.8-0.2l-0.2-4.1
			c0-0.2,0-0.5-0.3-0.5s-0.3,0.2-0.3,0.5l-0.2,4.2c0,0,0,0,0,0c-0.1,0.1-0.2,0.3-0.2,0.4C51.4,53.5,51.7,53.8,52,53.8z"/>
	</g>
	<g>
		<path class="st9" d="M18.2,24.2c0.1,0,0.2,0,0.3,0c0.2-1.3,0.5-2.5,1-3.7c-0.3-0.4-0.7-0.6-1.2-0.7l-12,3.3
			c0.2,0.6,0.8,1.1,1.4,1.1H18.2z"/>
		<path class="st9" d="M13.8,38.6c1.7,0,3.3-0.7,4.5-1.9c0.5-0.5,0.9-1,1.2-1.6c-0.9-2.4-1.4-5.2-1.3-7.8c-0.3-0.5-0.5-1-0.5-1.6
			l0-0.3H7.7c-0.1,0-0.2,0-0.3,0v6.7C7.4,35.6,10.2,38.5,13.8,38.6L13.8,38.6z"/>
		<path class="st9" d="M18.9,40.5c0.2-0.3,0.5-0.5,0.7-0.8c-0.4-0.4-0.9-0.9-1.4-1.4c-0.5,0.4-1,0.7-1.6,0.9c0,0-0.3,0.1-0.6,0.2
			c0.4,0.6,1,1.8,1,1.8L18.9,40.5z"/>
		<path class="st9" d="M42.6,32.6c0.1-0.6,0.2-1.2,0.3-1.8c0.1-0.4,0.1-0.8,0.1-1.2c0.1-0.7,0.1-1.5,0.1-2.3c0-1.1-0.1-2.3-0.3-3.3
			c-0.1-0.5-0.2-0.9-0.3-1.4c-1.5-6-6-10.4-11.2-10.4c-3.1,0-6,1.5-8.2,4.3c-1,1.3-1.8,2.7-2.4,4.3c-0.5,1.3-0.8,2.6-1,4
			c-0.1,0.8-0.2,1.5-0.2,2.3c0,0,0,0.1,0,0.1c0,0.4,0,0.8,0,1.2c0,1.3,0.2,2.7,0.6,4c0.2,0.8,0.4,1.6,0.7,2.3c0,0,0,0.1,0,0.1
			c0.6,1.6,1.7,3.6,3.5,4.9L22.7,32c0,0,0-0.1,0-0.1c0,0,0-0.1,0-0.1c-0.2-0.5-0.4-1-0.5-1.5c-0.1-0.3-0.1-0.5-0.1-0.8
			c-0.1-0.4-0.1-0.9-0.1-1.3l0-1.4l0-2.6l0-1c0-0.2,0.1-0.4,0.2-0.5c0.1-0.1,0.3-0.2,0.5-0.2c0.1,0,9.4-0.1,14.6-5.7
			c0.2-0.2,0.5-0.3,0.8-0.2c0.3,0.1,0.5,0.4,0.5,0.7l0,1.2c0,1.6,0.8,3.1,2,4.2c0,0,0,0,0,0c0.1,0.1,0.1,0.1,0.2,0.2
			c0,0.1,0.1,0.2,0.1,0.3v5c0,1.5-0.4,3-1,4.3L39.5,34L39.2,36l-0.6,3.6c0.7-0.6,1.4-1.3,1.9-2.1c0.2-0.3,0.4-0.6,0.6-1
			c0.3-0.5,0.6-1,0.8-1.6C42.2,34.2,42.4,33.4,42.6,32.6z"/>
		<path class="st9" d="M42.2,37.5c0.6,0.4,1.3,0.8,2.1,1.2c-0.7-0.5-1.2-1.2-1.7-1.9C42.5,36.9,42.4,37.2,42.2,37.5z"/>
		<path class="st9" d="M21.2,38.5c-0.4-0.6-0.8-1.3-1.2-2.1c-0.3,0.4-0.6,0.7-0.9,1.1c0.5,0.5,1,1,1.4,1.4
			C20.8,38.8,21,38.7,21.2,38.5z"/>
		<path class="st9" d="M25.4,37.5h0.9v-1.5c-0.5-0.3-1-0.7-1.5-1.2L25.4,37.5z"/>
		<path class="st9" d="M45.1,40.2c-1.4-0.5-2.5-1.1-3.5-1.8c0,0,0,0.1-0.1,0.1c0.9,0.5,1.7,1.2,2.3,1.9c0.1,0,0.1,0,0.2,0h1V40.2z"
			/>
		<path class="st9" d="M36.4,37.5h1l0.5-2.6c-0.4,0.4-0.9,0.8-1.4,1.2V37.5z"/>
		<path class="st9" d="M39.3,23.4c-1.3-1.2-2-2.8-2.2-4.6c-2.8,2.4-6.3,3.6-8.8,4.2c-2.2,0.5-4,0.7-5,0.7l0,4.4
			c0,2.1,0.8,4.1,2.4,5.7c1.5,1.5,3.5,2.3,5.7,2.3c2.8,0,5.2-1.5,6.6-3.7c0.1-0.2,0.3-0.4,0.4-0.7c0-0.1,0-0.1,0.1-0.1
			c0.5-1.1,0.9-2.3,0.9-3.6V23.4z"/>
		<path class="st9" d="M7.7,40l2.9,1.3c0,0,0.6-1.1,1.2-1.8c-0.4-0.1-0.8-0.3-0.8-0.3c-0.6-0.2-1.1-0.5-1.6-0.9L7.7,40z"/>
		<path class="st9" d="M35,36.8c-1.1,0.5-2.3,0.7-3.5,0.7h-0.1c-1.3,0-2.5-0.2-3.6-0.7v1.5l3.5,5.3l3.7-5.3V36.8z"/>
		<path class="st9" d="M17,42.7c-0.2,0-0.3-0.1-0.4-0.2c0,0-0.3-0.8-0.7-1.6l-1.6,4V55c0.9,0.7,1.8,1.3,2.8,1.9V46.4v-0.7v-0.1
			c0-1.1,0.2-2.2,0.6-3.2l-0.3,0.2C17.3,42.6,17.1,42.7,17,42.7z"/>
		<path class="st9" d="M45.1,42.5v-0.9h-0.4C44.8,41.9,45,42.1,45.1,42.5z"/>
		<path class="st9" d="M15.2,39.6c-0.5,0.1-0.9,0.1-1.4,0.1h-0.1c-0.4,0-0.7,0-1.1-0.1l1.2,3.7l1.4-3.6
			C15.2,39.7,15.2,39.7,15.2,39.6z"/>
		<path class="st9" d="M25.7,39l0.5,2.2c0.1,0.3,0,0.5-0.3,0.7c-0.1,0.1-0.3,0.2-0.5,0.2c-0.1,0-0.2,0-0.3-0.1
			c-0.1,0-0.1-0.1-0.2-0.1c-0.8-0.4-1.5-0.9-2.2-1.6c-0.2-0.2-0.4-0.4-0.7-0.7c-0.2,0.1-0.3,0.2-0.5,0.3c-0.6,0.3-1.1,0.8-1.5,1.3
			c-1,1.2-1.6,2.7-1.6,4.3v12.2c1.4,0.7,2.8,1.3,4.3,1.8V48.9h1.5V60c2,0.5,4.1,0.9,6.2,1V45.1l-4-6.1H25.7z"/>
		<path class="st9" d="M54,38.7c1.8-0.8,3.1-1.7,4-2.8c1.1-1.4,1.6-3,1.4-4.9c-0.4-3.5-3.1-7-5.6-9c-1.9-1.5-3.2-1.8-4.1-1
			c-0.1,0.1-0.2,0.1-0.4,0.1h0c-0.1,0-0.3-0.1-0.4-0.1c-0.9-0.8-2.2-0.5-4.1,1c-0.2,0.2-0.5,0.4-0.7,0.6c0.3,1.5,0.5,3,0.5,4.5
			c0,0.7,0,1.3-0.1,2c3.6-0.8,4.6-2.1,7.2-5.7c0.1-0.2,0.4-0.3,0.6-0.2c0.2,0.1,0.4,0.2,0.4,0.5c0.2,1.3,0,2.5-0.3,3.3
			c0.9-0.5,1.6-1.3,2.2-2.2l0-0.1c0.1-0.2,0.4-0.3,0.6-0.3c0.2,0.1,0.4,0.3,0.4,0.5l0,0.6c0,0.8,0.4,1.5,1,2C57,27.8,57,28,57,28.1
			c0,2.4,0,5.3-0.3,6.5C56.3,36.2,55.3,37.7,54,38.7z"/>
		<path class="st9" d="M6.4,39.6l2.1-2.1c-1.2-1.2-2-2.9-2.2-4.7l-1.1-0.9c-0.8-0.7-1.1-1.8-0.7-2.8c0.3-0.8,1-1.3,1.8-1.5V25
			C5.5,24.5,5,23.6,5,22.7v-0.5l13.1-3.6h0.1c0.7,0,1.3,0.2,1.7,0.6c0.6-1.3,1.3-2.5,2.2-3.6c2.5-3.2,5.8-4.9,9.3-4.9
			c3.6,0,6.9,1.7,9.4,4.9c1.3,1.7,2.3,3.7,3,5.8c0.1-0.1,0.2-0.2,0.3-0.3c0.9-0.7,1.7-1.2,2.5-1.4c1.2-0.4,2.1-0.2,2.7,0.2
			c0.6-0.4,1.5-0.6,2.7-0.2c0.7,0.3,1.6,0.7,2.5,1.5c1.4,1.1,2.8,2.6,3.9,4.2c1.2,1.8,2,3.7,2.2,5.5c0.2,2.2-0.3,4.1-1.6,5.7
			c-1.2,1.5-3,2.6-5.5,3.5v0.3h1.1c1.8,0,3.4,0.7,4.6,1.9C60.4,39.1,61,35.6,61,32C61,15.9,48,2.9,32,2.9S2.9,15.9,2.9,32
			c0,3,0.5,6,1.3,8.7c0.6-0.4,1.3-0.6,2.1-0.8C6.3,39.8,6.3,39.7,6.4,39.6z"/>
		<path class="st9" d="M55.6,34.4c0.3-1.2,0.3-4.4,0.3-5.9c-0.5-0.5-0.9-1.1-1.1-1.8c-0.9,0.9-1.9,1.7-3.1,2.1
			c-0.2,0.1-0.5,0-0.6-0.2c-0.2-0.2-0.2-0.4-0.1-0.6c0,0,0.5-1,0.7-2.3c-2.1,2.8-3.6,4-7.2,4.8c-0.2,1.8-0.6,3.5-1.2,5
			c0.1,0.2,0.2,0.4,0.3,0.6c0.7,1.2,1.8,2.2,3.1,2.8c1.7,0.7,3.8,0.7,5.5-0.2C53.8,37.8,55.1,36.2,55.6,34.4z"/>
		<path class="st9" d="M5.9,31l0.3,0.3v-2.4c-0.3,0.1-0.6,0.4-0.7,0.7C5.3,30.1,5.5,30.6,5.9,31z"/>
		<path class="st9" d="M11.1,42.5c-0.2,0.2-0.6,0.2-0.8,0L7,41c-0.9,0.1-1.7,0.4-2.4,0.9c1.8,4.9,4.8,9.2,8.7,12.4v-9.5L12,40.7
			C11.5,41.6,11.1,42.5,11.1,42.5z"/>
		<path class="st4" d="M39.9,59.9v-11h-1.5v11.4C36.4,60.8,34.2,61,32,61c0,0,0,0,0,0V45.1l4.4-6.2h0.9l-0.4,2.1
			c0,0.3,0.1,0.6,0.3,0.7c0.2,0.2,0.6,0.2,0.8,0c1-0.7,1.9-1.4,2.7-2.2c0.6,0.3,1.1,0.6,1.6,1.1c0.3,0.3,0.6,0.6,0.9,1
			c0.8,1.1,1.3,2.4,1.3,3.9v1.3c0.6-0.7,1.3-1.4,2.1-1.9c-0.1-0.3-0.1-0.5-0.1-0.8V41c0,0,0,0,0,0v-1.2c0.9,0.4,2,0.6,3,0.6
			c1,0,2.1-0.2,3.1-0.6v3.4c0.4,0,0.8,0,1.1,0.1v-1.7h1.1c1.7,0,3.2,0.8,4.2,1.9c-0.2,0.5-0.5,1.1-0.8,1.6c0.3,0.2,0.5,0.4,0.7,0.6
			C60.7,41.6,62,36.9,62,32C62,15.4,48.5,2,32,2S2,15.4,2,32s13.5,30,30,30c4.4,0,8.5-0.9,12.3-2.6c-0.2-0.2-0.4-0.5-0.5-0.8
			C42.5,59.1,41.2,59.6,39.9,59.9z M37.4,37.5h-1V36c0.5-0.3,1-0.7,1.4-1.2L37.4,37.5z M38.4,31.8c-0.1,0.2-0.3,0.5-0.4,0.7
			c-1.4,2.2-3.8,3.6-6.6,3.7c-2.1,0-4.2-0.8-5.7-2.3c-1.5-1.5-2.4-3.5-2.4-5.7l0-4.4c1-0.1,2.8-0.2,5-0.7c2.5-0.6,6-1.8,8.8-4.2
			c0.2,1.7,0.9,3.4,2.2,4.6V28c0,1.3-0.3,2.5-0.9,3.6C38.5,31.7,38.4,31.7,38.4,31.8z M26.3,36.1v1.5h-0.9l-0.6-2.6
			C25.3,35.3,25.8,35.7,26.3,36.1z M40.5,37.5c-0.6,0.8-1.2,1.5-1.9,2.1l0.6-3.6l0.3-1.9l0.3-1.8c0.6-1.3,1-2.7,1-4.3v-5
			c0-0.1,0-0.2-0.1-0.3c0-0.1-0.1-0.2-0.2-0.2c0,0,0,0,0,0c-1.2-1.1-1.9-2.6-2-4.2l0-1.2c0-0.3-0.2-0.6-0.5-0.7
			c-0.3-0.1-0.6,0-0.8,0.2c-5.2,5.6-14.5,5.7-14.6,5.7c-0.2,0-0.4,0.1-0.5,0.2c-0.1,0.1-0.2,0.3-0.2,0.5l0,1l0,2.6l0,1.4
			c0,0.4,0,0.9,0.1,1.3c0,0.3,0.1,0.5,0.1,0.8c0.1,0.5,0.3,1,0.5,1.5c0,0,0,0.1,0,0.1c0,0,0,0.1,0,0.1l1.7,7.9
			c-1.8-1.3-2.9-3.3-3.5-4.9c0,0,0-0.1,0-0.1c-0.3-0.7-0.5-1.5-0.7-2.3c-0.3-1.3-0.5-2.7-0.6-4c0-0.4,0-0.8,0-1.2c0,0,0-0.1,0-0.1
			c0-0.8,0.1-1.6,0.2-2.3c0.2-1.4,0.6-2.7,1-4c0.6-1.6,1.4-3.1,2.4-4.3c2.2-2.8,5.1-4.3,8.2-4.3c5.2,0,9.7,4.4,11.2,10.4
			c0.1,0.4,0.2,0.9,0.3,1.4c0.2,1.1,0.3,2.2,0.3,3.3c0,0.8,0,1.6-0.1,2.3c0,0.4-0.1,0.8-0.1,1.2c-0.1,0.6-0.2,1.2-0.3,1.8
			c-0.2,0.8-0.4,1.6-0.7,2.3c-0.2,0.6-0.5,1.1-0.8,1.6C40.9,36.9,40.7,37.2,40.5,37.5z M7.4,32.1v-6.7c0.1,0,0.2,0,0.3,0h9.9l0,0.3
			c0,0.6,0.2,1.2,0.5,1.6c-0.1,2.6,0.4,5.3,1.3,7.8c-0.3,0.6-0.7,1.1-1.2,1.6c-1.2,1.2-2.8,1.9-4.5,1.9h0
			C10.2,38.5,7.4,35.6,7.4,32.1z M11.8,39.5c-0.5,0.7-1.2,1.8-1.2,1.8L7.7,40l1.7-1.7c0.5,0.4,1,0.6,1.6,0.9
			C11,39.2,11.4,39.4,11.8,39.5z M6.3,23.2l12-3.3c0.5,0,0.9,0.3,1.2,0.7c-0.4,1.2-0.8,2.4-1,3.7c-0.1,0-0.2,0-0.3,0H7.7
			C7,24.2,6.5,23.8,6.3,23.2z M16.6,39.2c0.6-0.2,1.1-0.5,1.6-0.9c0.5,0.5,1,1,1.4,1.4c-0.3,0.2-0.5,0.5-0.7,0.8L17,41.3
			c0,0-0.6-1.2-1-1.8C16.3,39.3,16.6,39.2,16.6,39.2z M19.1,37.5c0.3-0.3,0.6-0.7,0.9-1.1c0.4,0.7,0.7,1.4,1.2,2.1
			c-0.2,0.1-0.4,0.3-0.7,0.4C20.2,38.6,19.7,38.1,19.1,37.5z M44.3,38.6c-0.8-0.3-1.5-0.7-2.1-1.2c0.2-0.3,0.3-0.5,0.4-0.8
			C43.1,37.4,43.7,38.1,44.3,38.6z M44,40.4c-0.1,0-0.1,0-0.2,0c-0.6-0.8-1.4-1.4-2.3-1.9c0,0,0-0.1,0.1-0.1c1,0.7,2.1,1.2,3.5,1.8
			v0.3H44z M45.1,42.5c-0.1-0.3-0.3-0.6-0.4-0.9h0.4V42.5z M52.1,38.6c-1.7,0.8-3.7,0.9-5.5,0.2c-1.3-0.6-2.5-1.5-3.1-2.8
			c-0.1-0.2-0.2-0.4-0.3-0.6c0.6-1.5,1-3.1,1.2-5c3.7-0.8,5.1-2,7.2-4.8C51.5,27,51,27.9,51,27.9c-0.1,0.2-0.1,0.5,0.1,0.6
			c0.1,0.2,0.4,0.2,0.6,0.2c1.2-0.4,2.3-1.1,3.1-2.1c0.2,0.7,0.5,1.3,1.1,1.8c0,1.5,0,4.8-0.3,5.9C55.1,36.2,53.8,37.8,52.1,38.6z
			 M57,28.1c0-0.2-0.1-0.3-0.2-0.4c-0.6-0.5-1-1.2-1-2l0-0.6c0-0.3-0.2-0.5-0.4-0.5c-0.2-0.1-0.5,0-0.6,0.3l0,0.1
			c-0.5,0.9-1.3,1.6-2.2,2.2c0.2-0.8,0.4-2,0.3-3.3c0-0.2-0.2-0.4-0.4-0.5c-0.2-0.1-0.5,0-0.6,0.2c-2.6,3.6-3.7,4.9-7.2,5.7
			c0-0.6,0.1-1.3,0.1-2c0-1.6-0.2-3.1-0.5-4.5c0.2-0.2,0.5-0.4,0.7-0.6c1.9-1.5,3.2-1.8,4.1-1c0.1,0.1,0.2,0.1,0.4,0.1h0
			c0.1,0,0.3-0.1,0.4-0.1c0.9-0.8,2.2-0.5,4.1,1c2.5,1.9,5.2,5.5,5.6,9c0.2,1.8-0.2,3.5-1.4,4.9c-0.9,1.1-2.2,2-4,2.8
			c1.3-1,2.3-2.5,2.7-4.1C57,33.4,57.1,30.5,57,28.1z M2.9,32c0-16.1,13-29.1,29.1-29.1S61,15.9,61,32c0,3.7-0.7,7.2-1.9,10.4
			c-1.2-1.2-2.8-1.9-4.6-1.9h-1.1v-0.3c2.5-0.9,4.3-2.1,5.5-3.5c1.3-1.6,1.8-3.5,1.6-5.7c-0.2-1.8-1-3.7-2.2-5.5
			c-1.1-1.6-2.4-3.1-3.9-4.2c-0.9-0.7-1.8-1.2-2.5-1.5c-1.2-0.4-2.1-0.2-2.7,0.2c-0.6-0.4-1.4-0.6-2.7-0.2c-0.8,0.2-1.6,0.7-2.5,1.4
			c-0.1,0.1-0.2,0.2-0.3,0.3c-0.6-2.2-1.7-4.1-3-5.8c-2.5-3.1-5.9-4.9-9.4-4.9c-3.5,0-6.8,1.7-9.3,4.9c-0.8,1.1-1.6,2.3-2.2,3.6
			c-0.5-0.4-1.1-0.6-1.7-0.6h-0.1L5,22.3v0.5c0,0.9,0.5,1.8,1.2,2.2v2.7c-0.8,0.2-1.5,0.7-1.8,1.5c-0.4,1-0.1,2.1,0.7,2.8l1.1,0.9
			c0.2,1.8,1,3.5,2.2,4.7l-2.1,2.1c-0.1,0.1-0.1,0.2-0.2,0.3c-0.7,0.2-1.4,0.4-2.1,0.8C3.3,37.9,2.9,35,2.9,32z M6.2,28.9v2.4
			L5.9,31c-0.4-0.4-0.6-0.9-0.4-1.5C5.6,29.2,5.9,29,6.2,28.9z M13.3,54.3c-3.9-3.3-7-7.6-8.7-12.4C5.3,41.4,6.1,41.1,7,41l3.3,1.6
			c0.2,0.2,0.6,0.2,0.8,0c0,0,0.5-0.9,0.9-1.8l1.3,4.1V54.3z M13.4,54.4c0,0,0.1,0.1,0.1,0.1C13.5,54.5,13.5,54.4,13.4,54.4z
			 M12.7,39.7c0.4,0.1,0.7,0.1,1.1,0.1h0.1c0.5,0,0.9,0,1.4-0.1c0,0,0,0.1,0.1,0.1l-1.4,3.6L12.7,39.7z M17.1,45.6v0.1v0.7v10.5
			c-1-0.6-1.9-1.2-2.8-1.9V44.9l1.6-4c0.4,0.8,0.7,1.6,0.7,1.6c0.1,0.1,0.3,0.2,0.4,0.2c0.1,0,0.3,0,0.4-0.1l0.3-0.2
			C17.3,43.4,17.1,44.4,17.1,45.6z M30.5,61c-2.1-0.1-4.2-0.4-6.2-1V48.9h-1.5v10.6c-1.5-0.5-2.9-1.1-4.3-1.8V45.5
			c0-1.6,0.6-3.2,1.6-4.3c0.4-0.5,0.9-0.9,1.5-1.3c0.2-0.1,0.3-0.2,0.5-0.3c0.2,0.2,0.4,0.5,0.7,0.7c0.7,0.6,1.4,1.2,2.2,1.6
			c0.1,0,0.1,0.1,0.2,0.1c0.1,0,0.2,0.1,0.3,0.1c0.2,0,0.3-0.1,0.5-0.2c0.2-0.2,0.3-0.5,0.3-0.7L25.7,39h0.7l4,6.1V61z M27.8,38.3
			v-1.5c1.1,0.5,2.3,0.7,3.6,0.7h0.1c1.3,0,2.4-0.3,3.5-0.7v1.5l-3.7,5.3L27.8,38.3z"/>
	</g>
</g>
</svg>
